#N canvas 940 349 500 452 10;
#X obj 110 78 random 800;
#X obj 110 111 + 200;
#X floatatom 113 147 5 0 0 0 - - -;
#X obj 113 180 osc~;
#X obj 113 214 *~ 0.7;
#X obj 110 246 dac~;
#X obj 161 27 bng 15 250 50 0 empty empty empty 17 7 0 10 -262144 -1
-1;
#X obj 202 77 random 800;
#X obj 202 110 + 200;
#X floatatom 205 146 5 0 0 0 - - -;
#X obj 205 179 osc~;
#X obj 205 213 *~ 0.7;
#X obj 202 245 dac~;
#X connect 0 0 1 0;
#X connect 1 0 2 0;
#X connect 2 0 3 0;
#X connect 3 0 4 0;
#X connect 4 0 5 0;
#X connect 4 0 5 1;
#X connect 6 0 0 0;
#X connect 6 0 7 0;
#X connect 7 0 8 0;
#X connect 8 0 9 0;
#X connect 9 0 10 0;
#X connect 10 0 11 0;
#X connect 11 0 12 0;
#X connect 11 0 12 1;
