#N canvas 940 445 500 355 10;
#X obj 142 122 unpack f f;
#X obj 142 183 osc~;
#X floatatom 142 154 5 0 0 0 - - -;
#X floatatom 200 186 5 0 0 0 - - -;
#X obj 166 219 *~;
#X obj 159 260 dac~;
#X msg 84 58 400 0.6;
#X msg 160 58 300 0.3;
#X msg 242 58 1000 0.8;
#X text 239 148 Warning is LOUD;
#X connect 0 0 2 0;
#X connect 0 1 3 0;
#X connect 1 0 4 0;
#X connect 2 0 1 0;
#X connect 3 0 4 1;
#X connect 4 0 5 0;
#X connect 4 0 5 1;
#X connect 6 0 0 0;
#X connect 7 0 0 0;
#X connect 8 0 0 0;
