#N canvas 940 446 500 355 10;
#X obj 186 17 bng 15 250 50 0 empty empty empty 17 7 0 10 -262144 -1
-1;
#X obj 57 135 bng 15 250 50 0 empty empty empty 17 7 0 10 -262144 -1
-1;
#X obj 131 81 f;
#X obj 132 115 + 1;
#X obj 133 151 spigot;
#X obj 133 184 t b f;
#X obj 175 126 tgl 15 0 empty empty empty 17 7 0 10 -262144 -1 -1 0
1;
#X obj 170 289 bng 15 250 50 0 empty empty empty 17 7 0 10 -262144
-1 -1;
#X msg 177 96 1;
#X msg 209 96 0;
#X floatatom 160 215 5 0 0 0 - - -;
#X obj 236 238 expr pow (3 \, $f1);
#X obj 236 263 print;
#X msg 146 56 -2;
#X obj 162 249 sel 4;
#X connect 0 0 13 0;
#X connect 0 0 8 0;
#X connect 1 0 2 0;
#X connect 2 0 3 0;
#X connect 3 0 4 0;
#X connect 4 0 5 0;
#X connect 5 0 1 0;
#X connect 5 1 10 0;
#X connect 5 1 2 1;
#X connect 6 0 4 1;
#X connect 7 0 9 0;
#X connect 8 0 6 0;
#X connect 9 0 6 0;
#X connect 10 0 11 0;
#X connect 10 0 14 0;
#X connect 11 0 12 0;
#X connect 13 0 2 1;
#X connect 14 0 7 0;
