#N canvas 323 23 526 778 10;
#X obj 62 485 loadbang;
#X msg 62 508 300;
#X floatatom 51 229 5 0 0 0 - - -;
#X obj 24 528 metro;
#X obj 24 569 float;
#X obj 76 553 + 1;
#X floatatom 24 610 5 0 0 0 - - -;
#X obj 24 650 mod 8;
#X floatatom 24 691 5 0 0 0 - - -;
#X obj 275 443 select 0 1 2 3 4 5 6 7;
#X obj 281 473 hradio 15 1 0 8 empty empty empty 0 -8 0 10 -262144
-1 -1 0;
#X obj 16 205 tgl 15 0 empty empty empty 17 7 0 10 -262144 -1 -1 0
1;
#X obj 249 168 vsl 15 128 0 127 0 0 empty empty empty 0 -9 0 10 -262144
-1 -1 7100 1;
#X obj 234 307 f;
#X obj 249 125 loadbang;
#X obj 88 324 mtof;
#X msg 45 324;
#X obj 282 168 vsl 15 128 0 127 0 0 empty empty empty 0 -9 0 10 -262144
-1 -1 7100 1;
#X obj 267 307 f;
#X obj 282 125 loadbang;
#X obj 313 168 vsl 15 128 0 127 0 0 empty empty empty 0 -9 0 10 -262144
-1 -1 7200 1;
#X obj 298 306 f;
#X obj 313 125 loadbang;
#X obj 346 168 vsl 15 128 0 127 0 0 empty empty empty 0 -9 0 10 -262144
-1 -1 7300 1;
#X obj 331 307 f;
#X obj 346 125 loadbang;
#X obj 381 168 vsl 15 128 0 127 0 0 empty empty empty 0 -9 0 10 -262144
-1 -1 7300 1;
#X obj 366 307 f;
#X obj 381 125 loadbang;
#X obj 414 168 vsl 15 128 0 127 0 0 empty empty empty 0 -9 0 10 -262144
-1 -1 7200 1;
#X obj 399 307 f;
#X obj 414 125 loadbang;
#X obj 447 168 vsl 15 128 0 127 0 0 empty empty empty 0 -9 0 10 -262144
-1 -1 7100 1;
#X obj 431 307 f;
#X obj 447 125 loadbang;
#X obj 480 168 vsl 15 128 0 127 0 0 empty empty empty 0 -9 0 10 -262144
-1 -1 7000 1;
#X obj 465 307 f;
#X obj 480 125 loadbang;
#X obj 35 441 bng 15 250 50 0 empty empty empty 17 7 0 10 -262144 -1
-1;
#X msg 35 461 0;
#X msg 249 146 71;
#X text 13 180 Start/stop;
#X text 51 207 Metronome;
#X floatatom 93 361 5 0 0 0 - - -;
#X floatatom 171 262 5 0 0 0 - - -;
#X obj 131 397 +;
#X floatatom 132 421 5 0 0 0 - - -;
#X obj 122 471 osc~;
#X obj 162 470 osc~;
#X obj 143 524 dac~;
#X text 170 242 best offset;
#X obj 123 496 *~ 0.3;
#X obj 160 494 *~ 0.3;
#X msg 282 146 70;
#X msg 313 146 69;
#X msg 346 146 68;
#X msg 381 146 67;
#X msg 414 146 66;
#X msg 447 146 65;
#X msg 480 146 64;
#X connect 0 0 1 0;
#X connect 1 0 2 0;
#X connect 2 0 3 1;
#X connect 3 0 4 0;
#X connect 4 0 6 0;
#X connect 4 0 5 0;
#X connect 5 0 4 1;
#X connect 6 0 7 0;
#X connect 7 0 8 0;
#X connect 8 0 10 0;
#X connect 9 0 13 0;
#X connect 9 1 18 0;
#X connect 9 2 21 0;
#X connect 9 3 24 0;
#X connect 9 4 27 0;
#X connect 9 5 30 0;
#X connect 9 6 33 0;
#X connect 9 7 36 0;
#X connect 10 0 9 0;
#X connect 11 0 3 0;
#X connect 11 0 38 0;
#X connect 12 0 13 1;
#X connect 13 0 15 0;
#X connect 13 0 16 0;
#X connect 14 0 40 0;
#X connect 15 0 43 0;
#X connect 17 0 18 1;
#X connect 18 0 15 0;
#X connect 18 0 16 0;
#X connect 19 0 53 0;
#X connect 20 0 21 1;
#X connect 21 0 15 0;
#X connect 21 0 16 0;
#X connect 22 0 54 0;
#X connect 23 0 24 1;
#X connect 24 0 15 0;
#X connect 24 0 16 0;
#X connect 25 0 55 0;
#X connect 26 0 27 1;
#X connect 27 0 15 0;
#X connect 27 0 16 0;
#X connect 28 0 56 0;
#X connect 29 0 30 1;
#X connect 30 0 15 0;
#X connect 30 0 16 0;
#X connect 31 0 57 0;
#X connect 32 0 33 1;
#X connect 33 0 15 0;
#X connect 33 0 16 0;
#X connect 34 0 58 0;
#X connect 35 0 36 1;
#X connect 36 0 15 0;
#X connect 36 0 16 0;
#X connect 37 0 59 0;
#X connect 38 0 39 0;
#X connect 39 0 43 0;
#X connect 39 0 46 0;
#X connect 40 0 12 0;
#X connect 43 0 47 0;
#X connect 43 0 45 0;
#X connect 44 0 45 1;
#X connect 45 0 46 0;
#X connect 46 0 48 0;
#X connect 47 0 51 0;
#X connect 48 0 52 0;
#X connect 51 0 49 0;
#X connect 52 0 49 1;
#X connect 53 0 17 0;
#X connect 54 0 20 0;
#X connect 55 0 23 0;
#X connect 56 0 26 0;
#X connect 57 0 29 0;
#X connect 58 0 32 0;
#X connect 59 0 35 0;
