#N canvas 535 34 254 318 10;
#X obj 81 136 osc~;
#X obj 149 131 osc~;
#X obj 85 178 *~ 0.2;
#X obj 148 176 *~ 0.2;
#X obj 106 240 dac~;
#X floatatom 52 34 5 0 0 0 - - -;
#X floatatom 176 37 5 0 0 0 - - -;
#X text 42 14 diff box;
#X text 168 12 base box;
#X obj 95 67 +;
#X floatatom 95 93 5 0 0 0 - - -;
#X connect 0 0 2 0;
#X connect 1 0 3 0;
#X connect 2 0 4 0;
#X connect 3 0 4 1;
#X connect 5 0 9 0;
#X connect 6 0 9 1;
#X connect 6 0 1 0;
#X connect 9 0 10 0;
#X connect 10 0 0 0;
