#N canvas 668 23 526 778 10;
#X obj 123 443 loadbang;
#X msg 123 484 300;
#X floatatom 80 489 5 0 0 0 - - -;
#X obj 24 528 metro;
#X obj 24 569 float;
#X obj 76 553 + 1;
#X floatatom 24 610 5 0 0 0 - - -;
#X obj 24 650 mod 8;
#X floatatom 24 691 5 0 0 0 - - -;
#X obj 212 443 select 0 1 2 3 4 5 6 7;
#X obj 218 473 hradio 15 1 0 8 empty empty empty 0 -8 0 10 -262144
-1 -1 7;
#X obj 24 489 tgl 15 0 empty empty empty 17 7 0 10 -262144 -1 -1 1
1;
#X obj 186 168 vsl 15 128 0 127 0 0 empty empty empty 0 -9 0 10 -262144
-1 -1 11400 1;
#X obj 171 307 f;
#X obj 186 125 loadbang;
#X msg 186 146;
#X obj 88 324 mtof;
#X obj 93 370 osc~;
#X obj 93 411 dac~;
#X msg 45 324;
#X obj 219 168 vsl 15 128 0 127 0 0 empty empty empty 0 -9 0 10 -262144
-1 -1 7800 1;
#X obj 204 307 f;
#X obj 219 125 loadbang;
#X msg 219 146;
#X obj 250 168 vsl 15 128 0 127 0 0 empty empty empty 0 -9 0 10 -262144
-1 -1 7200 1;
#X obj 235 306 f;
#X obj 250 125 loadbang;
#X msg 250 146;
#X obj 283 168 vsl 15 128 0 127 0 0 empty empty empty 0 -9 0 10 -262144
-1 -1 8400 1;
#X obj 268 307 f;
#X obj 283 125 loadbang;
#X msg 283 146;
#X obj 318 168 vsl 15 128 0 127 0 0 empty empty empty 0 -9 0 10 -262144
-1 -1 8100 1;
#X obj 303 307 f;
#X obj 318 125 loadbang;
#X msg 318 146;
#X obj 351 168 vsl 15 128 0 127 0 0 empty empty empty 0 -9 0 10 -262144
-1 -1 9300 1;
#X obj 336 307 f;
#X obj 351 125 loadbang;
#X msg 351 146;
#X obj 384 168 vsl 15 128 0 127 0 0 empty empty empty 0 -9 0 10 -262144
-1 -1 6800 1;
#X obj 368 307 f;
#X obj 384 125 loadbang;
#X msg 384 146;
#X obj 417 168 vsl 15 128 0 127 0 0 empty empty empty 0 -9 0 10 -262144
-1 -1 11500 1;
#X obj 402 307 f;
#X obj 417 125 loadbang;
#X msg 417 146;
#X connect 0 0 1 0;
#X connect 1 0 2 0;
#X connect 2 0 3 1;
#X connect 3 0 4 0;
#X connect 4 0 6 0;
#X connect 4 0 5 0;
#X connect 5 0 4 1;
#X connect 6 0 7 0;
#X connect 7 0 8 0;
#X connect 8 0 10 0;
#X connect 9 0 13 0;
#X connect 9 1 21 0;
#X connect 9 2 25 0;
#X connect 9 3 29 0;
#X connect 9 4 33 0;
#X connect 9 5 37 0;
#X connect 9 6 41 0;
#X connect 9 7 45 0;
#X connect 10 0 9 0;
#X connect 11 0 3 0;
#X connect 12 0 13 1;
#X connect 13 0 16 0;
#X connect 13 0 19 0;
#X connect 14 0 15 0;
#X connect 15 0 12 0;
#X connect 16 0 17 0;
#X connect 17 0 18 0;
#X connect 17 0 18 1;
#X connect 20 0 21 1;
#X connect 21 0 16 0;
#X connect 21 0 19 0;
#X connect 22 0 23 0;
#X connect 23 0 20 0;
#X connect 24 0 25 1;
#X connect 25 0 16 0;
#X connect 25 0 19 0;
#X connect 26 0 27 0;
#X connect 27 0 24 0;
#X connect 28 0 29 1;
#X connect 29 0 16 0;
#X connect 29 0 19 0;
#X connect 30 0 31 0;
#X connect 31 0 28 0;
#X connect 32 0 33 1;
#X connect 33 0 16 0;
#X connect 33 0 19 0;
#X connect 34 0 35 0;
#X connect 35 0 32 0;
#X connect 36 0 37 1;
#X connect 37 0 16 0;
#X connect 37 0 19 0;
#X connect 38 0 39 0;
#X connect 39 0 36 0;
#X connect 40 0 41 1;
#X connect 41 0 16 0;
#X connect 41 0 19 0;
#X connect 42 0 43 0;
#X connect 43 0 40 0;
#X connect 44 0 45 1;
#X connect 45 0 16 0;
#X connect 45 0 19 0;
#X connect 46 0 47 0;
#X connect 47 0 44 0;
