#N canvas 370 500 450 300 10;
#X obj 197 49 notein;
#X floatatom 186 89 5 0 0 0 - - -;
#X floatatom 224 90 5 0 0 0 - - -;
#X floatatom 264 91 5 0 0 0 - - -;
#X obj 84 105 ctlin;
#X floatatom 63 141 5 0 0 0 - - -;
#X floatatom 111 149 5 0 0 0 - - -;
#X floatatom 163 147 5 0 0 0 - - -;
#X connect 0 0 1 0;
#X connect 0 1 2 0;
#X connect 0 2 3 0;
#X connect 4 0 5 0;
#X connect 4 1 6 0;
#X connect 4 2 7 0;
